<mxfile host="app.diagrams.net" modified="2022-02-07T04:32:41.911Z" agent="5.0 (Windows NT 10.0; Win64; x64) AppleWebKit/537.36 (KHTML, like Gecko) Chrome/96.0.4664.110 Safari/537.36 OPR/82.0.4227.50" etag="uL5m3FRJE4a56ugYw3Ws" version="16.5.3" type="github">
  <diagram id="C5RBs43oDa-KdzZeNtuy" name="Page-1">
    <mxGraphModel dx="5425" dy="1175" grid="1" gridSize="10" guides="1" tooltips="1" connect="1" arrows="1" fold="1" page="1" pageScale="1" pageWidth="3300" pageHeight="2339" math="0" shadow="0">
      <root>
        <mxCell id="WIyWlLk6GJQsqaUBKTNV-0" />
        <mxCell id="WIyWlLk6GJQsqaUBKTNV-1" parent="WIyWlLk6GJQsqaUBKTNV-0" />
        <mxCell id="e0bECrX3CSkzmX3JzYQU-0" value="" style="rounded=1;whiteSpace=wrap;html=1;strokeWidth=4;" vertex="1" parent="WIyWlLk6GJQsqaUBKTNV-1">
          <mxGeometry x="80" y="90" width="740" height="350" as="geometry" />
        </mxCell>
        <mxCell id="e0bECrX3CSkzmX3JzYQU-2" value="" style="rounded=1;whiteSpace=wrap;html=1;strokeWidth=3;" vertex="1" parent="WIyWlLk6GJQsqaUBKTNV-1">
          <mxGeometry x="370" y="110" width="390" height="180" as="geometry" />
        </mxCell>
        <mxCell id="e0bECrX3CSkzmX3JzYQU-7" value="&lt;font face=&quot;Lucida Console&quot; style=&quot;font-size: 16px&quot;&gt;creatureCard Class&lt;/font&gt;" style="text;html=1;strokeColor=none;fillColor=none;align=center;verticalAlign=middle;whiteSpace=wrap;rounded=0;" vertex="1" parent="WIyWlLk6GJQsqaUBKTNV-1">
          <mxGeometry x="380" y="119" width="200" height="30" as="geometry" />
        </mxCell>
        <mxCell id="e0bECrX3CSkzmX3JzYQU-9" value="&lt;span data-lucid-type=&quot;application/vnd.lucid.text&quot; data-lucid-content=&quot;{&amp;#34;t&amp;#34;:&amp;#34;public int atk\npublic string hp\npublic List keywords\npublic Sprite unitSprite&amp;#34;,&amp;#34;m&amp;#34;:[{&amp;#34;s&amp;#34;:0,&amp;#34;n&amp;#34;:&amp;#34;a&amp;#34;,&amp;#34;v&amp;#34;:&amp;#34;left&amp;#34;},{&amp;#34;s&amp;#34;:0,&amp;#34;n&amp;#34;:&amp;#34;fl&amp;#34;,&amp;#34;v&amp;#34;:18},{&amp;#34;s&amp;#34;:0,&amp;#34;n&amp;#34;:&amp;#34;il&amp;#34;,&amp;#34;v&amp;#34;:18},{&amp;#34;s&amp;#34;:0,&amp;#34;n&amp;#34;:&amp;#34;l&amp;#34;,&amp;#34;v&amp;#34;:&amp;#34;auto&amp;#34;},{&amp;#34;s&amp;#34;:0,&amp;#34;n&amp;#34;:&amp;#34;t&amp;#34;,&amp;#34;v&amp;#34;:&amp;#34;ul&amp;#34;},{&amp;#34;s&amp;#34;:0,&amp;#34;n&amp;#34;:&amp;#34;c&amp;#34;,&amp;#34;v&amp;#34;:&amp;#34;333333ff&amp;#34;,&amp;#34;e&amp;#34;:77},{&amp;#34;s&amp;#34;:0,&amp;#34;n&amp;#34;:&amp;#34;s&amp;#34;,&amp;#34;v&amp;#34;:22.44444444444444,&amp;#34;e&amp;#34;:77},{&amp;#34;s&amp;#34;:11,&amp;#34;n&amp;#34;:&amp;#34;b&amp;#34;,&amp;#34;v&amp;#34;:true,&amp;#34;e&amp;#34;:15},{&amp;#34;s&amp;#34;:11,&amp;#34;n&amp;#34;:&amp;#34;fc&amp;#34;,&amp;#34;v&amp;#34;:&amp;#34;Bold&amp;#34;,&amp;#34;e&amp;#34;:15},{&amp;#34;s&amp;#34;:11,&amp;#34;n&amp;#34;:&amp;#34;fid&amp;#34;,&amp;#34;v&amp;#34;:5,&amp;#34;e&amp;#34;:15},{&amp;#34;s&amp;#34;:15,&amp;#34;n&amp;#34;:&amp;#34;a&amp;#34;,&amp;#34;v&amp;#34;:&amp;#34;left&amp;#34;},{&amp;#34;s&amp;#34;:15,&amp;#34;n&amp;#34;:&amp;#34;fl&amp;#34;,&amp;#34;v&amp;#34;:18},{&amp;#34;s&amp;#34;:15,&amp;#34;n&amp;#34;:&amp;#34;il&amp;#34;,&amp;#34;v&amp;#34;:18},{&amp;#34;s&amp;#34;:15,&amp;#34;n&amp;#34;:&amp;#34;l&amp;#34;,&amp;#34;v&amp;#34;:&amp;#34;auto&amp;#34;},{&amp;#34;s&amp;#34;:15,&amp;#34;n&amp;#34;:&amp;#34;t&amp;#34;,&amp;#34;v&amp;#34;:&amp;#34;ul&amp;#34;},{&amp;#34;s&amp;#34;:15,&amp;#34;n&amp;#34;:&amp;#34;fc&amp;#34;,&amp;#34;v&amp;#34;:&amp;#34;Regular&amp;#34;,&amp;#34;e&amp;#34;:29},{&amp;#34;s&amp;#34;:15,&amp;#34;n&amp;#34;:&amp;#34;fid&amp;#34;,&amp;#34;v&amp;#34;:2,&amp;#34;e&amp;#34;:29},{&amp;#34;s&amp;#34;:29,&amp;#34;n&amp;#34;:&amp;#34;b&amp;#34;,&amp;#34;v&amp;#34;:true,&amp;#34;e&amp;#34;:32},{&amp;#34;s&amp;#34;:29,&amp;#34;n&amp;#34;:&amp;#34;fc&amp;#34;,&amp;#34;v&amp;#34;:&amp;#34;Bold&amp;#34;,&amp;#34;e&amp;#34;:32},{&amp;#34;s&amp;#34;:29,&amp;#34;n&amp;#34;:&amp;#34;fid&amp;#34;,&amp;#34;v&amp;#34;:5,&amp;#34;e&amp;#34;:32},{&amp;#34;s&amp;#34;:32,&amp;#34;n&amp;#34;:&amp;#34;a&amp;#34;,&amp;#34;v&amp;#34;:&amp;#34;left&amp;#34;},{&amp;#34;s&amp;#34;:32,&amp;#34;n&amp;#34;:&amp;#34;fl&amp;#34;,&amp;#34;v&amp;#34;:18},{&amp;#34;s&amp;#34;:32,&amp;#34;n&amp;#34;:&amp;#34;il&amp;#34;,&amp;#34;v&amp;#34;:18},{&amp;#34;s&amp;#34;:32,&amp;#34;n&amp;#34;:&amp;#34;l&amp;#34;,&amp;#34;v&amp;#34;:&amp;#34;auto&amp;#34;},{&amp;#34;s&amp;#34;:32,&amp;#34;n&amp;#34;:&amp;#34;t&amp;#34;,&amp;#34;v&amp;#34;:&amp;#34;ul&amp;#34;},{&amp;#34;s&amp;#34;:32,&amp;#34;n&amp;#34;:&amp;#34;fc&amp;#34;,&amp;#34;v&amp;#34;:&amp;#34;Regular&amp;#34;,&amp;#34;e&amp;#34;:44},{&amp;#34;s&amp;#34;:32,&amp;#34;n&amp;#34;:&amp;#34;fid&amp;#34;,&amp;#34;v&amp;#34;:2,&amp;#34;e&amp;#34;:44},{&amp;#34;s&amp;#34;:53,&amp;#34;n&amp;#34;:&amp;#34;a&amp;#34;,&amp;#34;v&amp;#34;:&amp;#34;left&amp;#34;},{&amp;#34;s&amp;#34;:53,&amp;#34;n&amp;#34;:&amp;#34;fl&amp;#34;,&amp;#34;v&amp;#34;:18},{&amp;#34;s&amp;#34;:53,&amp;#34;n&amp;#34;:&amp;#34;il&amp;#34;,&amp;#34;v&amp;#34;:18},{&amp;#34;s&amp;#34;:53,&amp;#34;n&amp;#34;:&amp;#34;l&amp;#34;,&amp;#34;v&amp;#34;:&amp;#34;auto&amp;#34;},{&amp;#34;s&amp;#34;:53,&amp;#34;n&amp;#34;:&amp;#34;t&amp;#34;,&amp;#34;v&amp;#34;:&amp;#34;ul&amp;#34;},{&amp;#34;s&amp;#34;:52,&amp;#34;n&amp;#34;:&amp;#34;fc&amp;#34;,&amp;#34;v&amp;#34;:&amp;#34;Regular&amp;#34;,&amp;#34;e&amp;#34;:67},{&amp;#34;s&amp;#34;:44,&amp;#34;n&amp;#34;:&amp;#34;fc&amp;#34;,&amp;#34;v&amp;#34;:&amp;#34;Bold&amp;#34;,&amp;#34;e&amp;#34;:52},{&amp;#34;s&amp;#34;:44,&amp;#34;n&amp;#34;:&amp;#34;b&amp;#34;,&amp;#34;v&amp;#34;:true,&amp;#34;e&amp;#34;:52},{&amp;#34;s&amp;#34;:52,&amp;#34;n&amp;#34;:&amp;#34;fid&amp;#34;,&amp;#34;v&amp;#34;:2,&amp;#34;e&amp;#34;:67},{&amp;#34;s&amp;#34;:44,&amp;#34;n&amp;#34;:&amp;#34;fid&amp;#34;,&amp;#34;v&amp;#34;:5,&amp;#34;e&amp;#34;:52},{&amp;#34;s&amp;#34;:67,&amp;#34;n&amp;#34;:&amp;#34;fc&amp;#34;,&amp;#34;v&amp;#34;:&amp;#34;Bold&amp;#34;,&amp;#34;e&amp;#34;:77},{&amp;#34;s&amp;#34;:67,&amp;#34;n&amp;#34;:&amp;#34;b&amp;#34;,&amp;#34;v&amp;#34;:true,&amp;#34;e&amp;#34;:77},{&amp;#34;s&amp;#34;:67,&amp;#34;n&amp;#34;:&amp;#34;fid&amp;#34;,&amp;#34;v&amp;#34;:5,&amp;#34;e&amp;#34;:77}]}&quot;&gt;&lt;span style=&quot;text-align: left ; color: #333333 ; font-size: 16.83333333333333px&quot;&gt;public int &lt;/span&gt;&lt;span style=&quot;text-align: left ; color: #333333 ; font-size: 16.83333333333333px ; font-weight: bold&quot;&gt;atk;&lt;br&gt;&lt;/span&gt;&lt;span style=&quot;text-align: left ; color: #333333 ; font-size: 16.83333333333333px&quot;&gt;public string &lt;/span&gt;&lt;span style=&quot;text-align: left ; color: #333333 ; font-size: 16.83333333333333px ; font-weight: bold&quot;&gt;hp;&lt;br&gt;&lt;/span&gt;&lt;span style=&quot;text-align: left ; color: #333333 ; font-size: 16.83333333333333px&quot;&gt;public List &lt;/span&gt;&lt;span style=&quot;text-align: left ; color: #333333 ; font-size: 16.83333333333333px ; font-weight: bold&quot;&gt;keywords;&lt;/span&gt;&lt;span style=&quot;text-align: left ; color: #333333 ; font-size: 16.83333333333333px&quot;&gt;&lt;br&gt;&lt;/span&gt;&lt;span style=&quot;text-align: left ; color: #333333 ; font-size: 16.83333333333333px&quot;&gt;public Sprite &lt;/span&gt;&lt;span style=&quot;text-align: left ; color: #333333 ; font-size: 16.83333333333333px ; font-weight: bold&quot;&gt;unitSprite;&lt;/span&gt;&lt;/span&gt;" style="text;whiteSpace=wrap;html=1;fontFamily=Lucida Console;" vertex="1" parent="WIyWlLk6GJQsqaUBKTNV-1">
          <mxGeometry x="100" y="160" width="270" height="80" as="geometry" />
        </mxCell>
        <mxCell id="e0bECrX3CSkzmX3JzYQU-10" value="&lt;span data-lucid-type=&quot;application/vnd.lucid.text&quot; data-lucid-content=&quot;{&amp;#34;t&amp;#34;:&amp;#34;public int id\npublic string cardName\npublic string cardDescription\npublic Sprite artwork\npublic List effects&amp;#34;,&amp;#34;m&amp;#34;:[{&amp;#34;s&amp;#34;:0,&amp;#34;n&amp;#34;:&amp;#34;a&amp;#34;,&amp;#34;v&amp;#34;:&amp;#34;left&amp;#34;},{&amp;#34;s&amp;#34;:0,&amp;#34;n&amp;#34;:&amp;#34;fl&amp;#34;,&amp;#34;v&amp;#34;:18},{&amp;#34;s&amp;#34;:0,&amp;#34;n&amp;#34;:&amp;#34;il&amp;#34;,&amp;#34;v&amp;#34;:18},{&amp;#34;s&amp;#34;:0,&amp;#34;n&amp;#34;:&amp;#34;l&amp;#34;,&amp;#34;v&amp;#34;:&amp;#34;auto&amp;#34;},{&amp;#34;s&amp;#34;:0,&amp;#34;n&amp;#34;:&amp;#34;t&amp;#34;,&amp;#34;v&amp;#34;:&amp;#34;ul&amp;#34;},{&amp;#34;s&amp;#34;:0,&amp;#34;n&amp;#34;:&amp;#34;c&amp;#34;,&amp;#34;v&amp;#34;:&amp;#34;333333ff&amp;#34;,&amp;#34;e&amp;#34;:108},{&amp;#34;s&amp;#34;:0,&amp;#34;n&amp;#34;:&amp;#34;s&amp;#34;,&amp;#34;v&amp;#34;:22.44444444444444,&amp;#34;e&amp;#34;:108},{&amp;#34;s&amp;#34;:11,&amp;#34;n&amp;#34;:&amp;#34;b&amp;#34;,&amp;#34;v&amp;#34;:true,&amp;#34;e&amp;#34;:14},{&amp;#34;s&amp;#34;:11,&amp;#34;n&amp;#34;:&amp;#34;fc&amp;#34;,&amp;#34;v&amp;#34;:&amp;#34;Bold&amp;#34;,&amp;#34;e&amp;#34;:14},{&amp;#34;s&amp;#34;:11,&amp;#34;n&amp;#34;:&amp;#34;fid&amp;#34;,&amp;#34;v&amp;#34;:5,&amp;#34;e&amp;#34;:14},{&amp;#34;s&amp;#34;:14,&amp;#34;n&amp;#34;:&amp;#34;a&amp;#34;,&amp;#34;v&amp;#34;:&amp;#34;left&amp;#34;},{&amp;#34;s&amp;#34;:14,&amp;#34;n&amp;#34;:&amp;#34;fl&amp;#34;,&amp;#34;v&amp;#34;:18},{&amp;#34;s&amp;#34;:14,&amp;#34;n&amp;#34;:&amp;#34;il&amp;#34;,&amp;#34;v&amp;#34;:18},{&amp;#34;s&amp;#34;:14,&amp;#34;n&amp;#34;:&amp;#34;l&amp;#34;,&amp;#34;v&amp;#34;:&amp;#34;auto&amp;#34;},{&amp;#34;s&amp;#34;:14,&amp;#34;n&amp;#34;:&amp;#34;t&amp;#34;,&amp;#34;v&amp;#34;:&amp;#34;ul&amp;#34;},{&amp;#34;s&amp;#34;:14,&amp;#34;n&amp;#34;:&amp;#34;fc&amp;#34;,&amp;#34;v&amp;#34;:&amp;#34;Regular&amp;#34;,&amp;#34;e&amp;#34;:28},{&amp;#34;s&amp;#34;:14,&amp;#34;n&amp;#34;:&amp;#34;fid&amp;#34;,&amp;#34;v&amp;#34;:2,&amp;#34;e&amp;#34;:28},{&amp;#34;s&amp;#34;:28,&amp;#34;n&amp;#34;:&amp;#34;fc&amp;#34;,&amp;#34;v&amp;#34;:&amp;#34;Bold&amp;#34;,&amp;#34;e&amp;#34;:37},{&amp;#34;s&amp;#34;:28,&amp;#34;n&amp;#34;:&amp;#34;b&amp;#34;,&amp;#34;v&amp;#34;:true,&amp;#34;e&amp;#34;:37},{&amp;#34;s&amp;#34;:28,&amp;#34;n&amp;#34;:&amp;#34;fid&amp;#34;,&amp;#34;v&amp;#34;:5,&amp;#34;e&amp;#34;:37},{&amp;#34;s&amp;#34;:37,&amp;#34;n&amp;#34;:&amp;#34;a&amp;#34;,&amp;#34;v&amp;#34;:&amp;#34;left&amp;#34;},{&amp;#34;s&amp;#34;:37,&amp;#34;n&amp;#34;:&amp;#34;fl&amp;#34;,&amp;#34;v&amp;#34;:18},{&amp;#34;s&amp;#34;:37,&amp;#34;n&amp;#34;:&amp;#34;il&amp;#34;,&amp;#34;v&amp;#34;:18},{&amp;#34;s&amp;#34;:37,&amp;#34;n&amp;#34;:&amp;#34;l&amp;#34;,&amp;#34;v&amp;#34;:&amp;#34;auto&amp;#34;},{&amp;#34;s&amp;#34;:37,&amp;#34;n&amp;#34;:&amp;#34;t&amp;#34;,&amp;#34;v&amp;#34;:&amp;#34;ul&amp;#34;},{&amp;#34;s&amp;#34;:37,&amp;#34;n&amp;#34;:&amp;#34;fc&amp;#34;,&amp;#34;v&amp;#34;:&amp;#34;Regular&amp;#34;,&amp;#34;e&amp;#34;:51},{&amp;#34;s&amp;#34;:37,&amp;#34;n&amp;#34;:&amp;#34;fid&amp;#34;,&amp;#34;v&amp;#34;:2,&amp;#34;e&amp;#34;:51},{&amp;#34;s&amp;#34;:51,&amp;#34;n&amp;#34;:&amp;#34;fc&amp;#34;,&amp;#34;v&amp;#34;:&amp;#34;Bold&amp;#34;,&amp;#34;e&amp;#34;:66},{&amp;#34;s&amp;#34;:51,&amp;#34;n&amp;#34;:&amp;#34;b&amp;#34;,&amp;#34;v&amp;#34;:true,&amp;#34;e&amp;#34;:66},{&amp;#34;s&amp;#34;:51,&amp;#34;n&amp;#34;:&amp;#34;fid&amp;#34;,&amp;#34;v&amp;#34;:5,&amp;#34;e&amp;#34;:66},{&amp;#34;s&amp;#34;:66,&amp;#34;n&amp;#34;:&amp;#34;fc&amp;#34;,&amp;#34;v&amp;#34;:&amp;#34;Regular&amp;#34;,&amp;#34;e&amp;#34;:81},{&amp;#34;s&amp;#34;:66,&amp;#34;n&amp;#34;:&amp;#34;fid&amp;#34;,&amp;#34;v&amp;#34;:2,&amp;#34;e&amp;#34;:81},{&amp;#34;s&amp;#34;:67,&amp;#34;n&amp;#34;:&amp;#34;a&amp;#34;,&amp;#34;v&amp;#34;:&amp;#34;left&amp;#34;},{&amp;#34;s&amp;#34;:67,&amp;#34;n&amp;#34;:&amp;#34;fl&amp;#34;,&amp;#34;v&amp;#34;:18},{&amp;#34;s&amp;#34;:67,&amp;#34;n&amp;#34;:&amp;#34;il&amp;#34;,&amp;#34;v&amp;#34;:18},{&amp;#34;s&amp;#34;:67,&amp;#34;n&amp;#34;:&amp;#34;l&amp;#34;,&amp;#34;v&amp;#34;:&amp;#34;auto&amp;#34;},{&amp;#34;s&amp;#34;:67,&amp;#34;n&amp;#34;:&amp;#34;t&amp;#34;,&amp;#34;v&amp;#34;:&amp;#34;ul&amp;#34;},{&amp;#34;s&amp;#34;:81,&amp;#34;n&amp;#34;:&amp;#34;fc&amp;#34;,&amp;#34;v&amp;#34;:&amp;#34;Bold&amp;#34;,&amp;#34;e&amp;#34;:89},{&amp;#34;s&amp;#34;:81,&amp;#34;n&amp;#34;:&amp;#34;b&amp;#34;,&amp;#34;v&amp;#34;:true,&amp;#34;e&amp;#34;:89},{&amp;#34;s&amp;#34;:81,&amp;#34;n&amp;#34;:&amp;#34;fid&amp;#34;,&amp;#34;v&amp;#34;:5,&amp;#34;e&amp;#34;:89},{&amp;#34;s&amp;#34;:89,&amp;#34;n&amp;#34;:&amp;#34;a&amp;#34;,&amp;#34;v&amp;#34;:&amp;#34;left&amp;#34;},{&amp;#34;s&amp;#34;:89,&amp;#34;n&amp;#34;:&amp;#34;fl&amp;#34;,&amp;#34;v&amp;#34;:18},{&amp;#34;s&amp;#34;:89,&amp;#34;n&amp;#34;:&amp;#34;il&amp;#34;,&amp;#34;v&amp;#34;:18},{&amp;#34;s&amp;#34;:89,&amp;#34;n&amp;#34;:&amp;#34;l&amp;#34;,&amp;#34;v&amp;#34;:&amp;#34;auto&amp;#34;},{&amp;#34;s&amp;#34;:89,&amp;#34;n&amp;#34;:&amp;#34;t&amp;#34;,&amp;#34;v&amp;#34;:&amp;#34;ul&amp;#34;},{&amp;#34;s&amp;#34;:89,&amp;#34;n&amp;#34;:&amp;#34;fc&amp;#34;,&amp;#34;v&amp;#34;:&amp;#34;Regular&amp;#34;,&amp;#34;e&amp;#34;:101},{&amp;#34;s&amp;#34;:89,&amp;#34;n&amp;#34;:&amp;#34;fid&amp;#34;,&amp;#34;v&amp;#34;:2,&amp;#34;e&amp;#34;:101},{&amp;#34;s&amp;#34;:101,&amp;#34;n&amp;#34;:&amp;#34;fc&amp;#34;,&amp;#34;v&amp;#34;:&amp;#34;Bold&amp;#34;,&amp;#34;e&amp;#34;:108},{&amp;#34;s&amp;#34;:101,&amp;#34;n&amp;#34;:&amp;#34;b&amp;#34;,&amp;#34;v&amp;#34;:true,&amp;#34;e&amp;#34;:108},{&amp;#34;s&amp;#34;:101,&amp;#34;n&amp;#34;:&amp;#34;fid&amp;#34;,&amp;#34;v&amp;#34;:5,&amp;#34;e&amp;#34;:108}]}&quot;&gt;&lt;span style=&quot;text-align: left ; color: #333333 ; font-size: 16.83333333333333px&quot;&gt;public int &lt;/span&gt;&lt;span style=&quot;text-align: left ; color: #333333 ; font-size: 16.83333333333333px ; font-weight: bold&quot;&gt;id;&lt;br&gt;&lt;/span&gt;&lt;span style=&quot;text-align: left ; color: #333333 ; font-size: 16.83333333333333px&quot;&gt;public string &lt;/span&gt;&lt;span style=&quot;text-align: left ; color: #333333 ; font-size: 16.83333333333333px ; font-weight: bold&quot;&gt;cardName;&lt;br&gt;&lt;/span&gt;&lt;span style=&quot;text-align: left ; color: #333333 ; font-size: 16.83333333333333px&quot;&gt;public string &lt;/span&gt;&lt;span style=&quot;text-align: left ; color: #333333 ; font-size: 16.83333333333333px ; font-weight: bold&quot;&gt;cardDescription;&lt;/span&gt;&lt;span style=&quot;text-align: left ; color: #333333 ; font-size: 16.83333333333333px&quot;&gt;&lt;br&gt;&lt;/span&gt;&lt;span style=&quot;text-align: left ; color: #333333 ; font-size: 16.83333333333333px&quot;&gt;public Sprite &lt;/span&gt;&lt;span style=&quot;text-align: left ; color: #333333 ; font-size: 16.83333333333333px ; font-weight: bold&quot;&gt;artwork;&lt;br&gt;&lt;/span&gt;&lt;span style=&quot;text-align: left ; color: #333333 ; font-size: 16.83333333333333px&quot;&gt;public List &lt;/span&gt;&lt;span style=&quot;text-align: left ; color: #333333 ; font-size: 16.83333333333333px ; font-weight: bold&quot;&gt;effects;&lt;/span&gt;&lt;/span&gt;" style="text;whiteSpace=wrap;html=1;fontFamily=Lucida Console;" vertex="1" parent="WIyWlLk6GJQsqaUBKTNV-1">
          <mxGeometry x="390" y="155" width="320" height="90" as="geometry" />
        </mxCell>
        <UserObject label="Card Interface" lucidchartObjectId="nDcRBjl5U1kZ" id="e0bECrX3CSkzmX3JzYQU-11">
          <mxCell style="html=1;overflow=block;blockSpacing=1;whiteSpace=wrap;fontSize=18.5;fontFamily=Liberation Mono;fontColor=#333333;fontStyle=1;align=center;spacing=3.8;strokeOpacity=0;fillOpacity=0;rounded=1;absoluteArcSize=1;arcSize=12;fillColor=#ffffff;strokeWidth=0.8;" vertex="1" parent="WIyWlLk6GJQsqaUBKTNV-1">
            <mxGeometry x="75" y="101" width="180" height="48" as="geometry" />
          </mxCell>
        </UserObject>
        <mxCell id="e0bECrX3CSkzmX3JzYQU-12" value="" style="rounded=1;whiteSpace=wrap;html=1;strokeWidth=3;" vertex="1" parent="WIyWlLk6GJQsqaUBKTNV-1">
          <mxGeometry x="370" y="315" width="390" height="95" as="geometry" />
        </mxCell>
        <mxCell id="e0bECrX3CSkzmX3JzYQU-13" value="&lt;font face=&quot;Lucida Console&quot; style=&quot;font-size: 16px&quot;&gt;spellCard Class&lt;/font&gt;" style="text;html=1;strokeColor=none;fillColor=none;align=center;verticalAlign=middle;whiteSpace=wrap;rounded=0;" vertex="1" parent="WIyWlLk6GJQsqaUBKTNV-1">
          <mxGeometry x="380" y="324" width="200" height="30" as="geometry" />
        </mxCell>
        <mxCell id="e0bECrX3CSkzmX3JzYQU-15" value="&lt;span data-lucid-type=&quot;application/vnd.lucid.text&quot; data-lucid-content=&quot;{&amp;#34;t&amp;#34;:&amp;#34;public int id\npublic string cardName\npublic string cardDescription\npublic Sprite artwork\npublic List effects&amp;#34;,&amp;#34;m&amp;#34;:[{&amp;#34;s&amp;#34;:0,&amp;#34;n&amp;#34;:&amp;#34;a&amp;#34;,&amp;#34;v&amp;#34;:&amp;#34;left&amp;#34;},{&amp;#34;s&amp;#34;:0,&amp;#34;n&amp;#34;:&amp;#34;fl&amp;#34;,&amp;#34;v&amp;#34;:18},{&amp;#34;s&amp;#34;:0,&amp;#34;n&amp;#34;:&amp;#34;il&amp;#34;,&amp;#34;v&amp;#34;:18},{&amp;#34;s&amp;#34;:0,&amp;#34;n&amp;#34;:&amp;#34;l&amp;#34;,&amp;#34;v&amp;#34;:&amp;#34;auto&amp;#34;},{&amp;#34;s&amp;#34;:0,&amp;#34;n&amp;#34;:&amp;#34;t&amp;#34;,&amp;#34;v&amp;#34;:&amp;#34;ul&amp;#34;},{&amp;#34;s&amp;#34;:0,&amp;#34;n&amp;#34;:&amp;#34;c&amp;#34;,&amp;#34;v&amp;#34;:&amp;#34;333333ff&amp;#34;,&amp;#34;e&amp;#34;:108},{&amp;#34;s&amp;#34;:0,&amp;#34;n&amp;#34;:&amp;#34;s&amp;#34;,&amp;#34;v&amp;#34;:22.44444444444444,&amp;#34;e&amp;#34;:108},{&amp;#34;s&amp;#34;:11,&amp;#34;n&amp;#34;:&amp;#34;b&amp;#34;,&amp;#34;v&amp;#34;:true,&amp;#34;e&amp;#34;:14},{&amp;#34;s&amp;#34;:11,&amp;#34;n&amp;#34;:&amp;#34;fc&amp;#34;,&amp;#34;v&amp;#34;:&amp;#34;Bold&amp;#34;,&amp;#34;e&amp;#34;:14},{&amp;#34;s&amp;#34;:11,&amp;#34;n&amp;#34;:&amp;#34;fid&amp;#34;,&amp;#34;v&amp;#34;:5,&amp;#34;e&amp;#34;:14},{&amp;#34;s&amp;#34;:14,&amp;#34;n&amp;#34;:&amp;#34;a&amp;#34;,&amp;#34;v&amp;#34;:&amp;#34;left&amp;#34;},{&amp;#34;s&amp;#34;:14,&amp;#34;n&amp;#34;:&amp;#34;fl&amp;#34;,&amp;#34;v&amp;#34;:18},{&amp;#34;s&amp;#34;:14,&amp;#34;n&amp;#34;:&amp;#34;il&amp;#34;,&amp;#34;v&amp;#34;:18},{&amp;#34;s&amp;#34;:14,&amp;#34;n&amp;#34;:&amp;#34;l&amp;#34;,&amp;#34;v&amp;#34;:&amp;#34;auto&amp;#34;},{&amp;#34;s&amp;#34;:14,&amp;#34;n&amp;#34;:&amp;#34;t&amp;#34;,&amp;#34;v&amp;#34;:&amp;#34;ul&amp;#34;},{&amp;#34;s&amp;#34;:14,&amp;#34;n&amp;#34;:&amp;#34;fc&amp;#34;,&amp;#34;v&amp;#34;:&amp;#34;Regular&amp;#34;,&amp;#34;e&amp;#34;:28},{&amp;#34;s&amp;#34;:14,&amp;#34;n&amp;#34;:&amp;#34;fid&amp;#34;,&amp;#34;v&amp;#34;:2,&amp;#34;e&amp;#34;:28},{&amp;#34;s&amp;#34;:28,&amp;#34;n&amp;#34;:&amp;#34;fc&amp;#34;,&amp;#34;v&amp;#34;:&amp;#34;Bold&amp;#34;,&amp;#34;e&amp;#34;:37},{&amp;#34;s&amp;#34;:28,&amp;#34;n&amp;#34;:&amp;#34;b&amp;#34;,&amp;#34;v&amp;#34;:true,&amp;#34;e&amp;#34;:37},{&amp;#34;s&amp;#34;:28,&amp;#34;n&amp;#34;:&amp;#34;fid&amp;#34;,&amp;#34;v&amp;#34;:5,&amp;#34;e&amp;#34;:37},{&amp;#34;s&amp;#34;:37,&amp;#34;n&amp;#34;:&amp;#34;a&amp;#34;,&amp;#34;v&amp;#34;:&amp;#34;left&amp;#34;},{&amp;#34;s&amp;#34;:37,&amp;#34;n&amp;#34;:&amp;#34;fl&amp;#34;,&amp;#34;v&amp;#34;:18},{&amp;#34;s&amp;#34;:37,&amp;#34;n&amp;#34;:&amp;#34;il&amp;#34;,&amp;#34;v&amp;#34;:18},{&amp;#34;s&amp;#34;:37,&amp;#34;n&amp;#34;:&amp;#34;l&amp;#34;,&amp;#34;v&amp;#34;:&amp;#34;auto&amp;#34;},{&amp;#34;s&amp;#34;:37,&amp;#34;n&amp;#34;:&amp;#34;t&amp;#34;,&amp;#34;v&amp;#34;:&amp;#34;ul&amp;#34;},{&amp;#34;s&amp;#34;:37,&amp;#34;n&amp;#34;:&amp;#34;fc&amp;#34;,&amp;#34;v&amp;#34;:&amp;#34;Regular&amp;#34;,&amp;#34;e&amp;#34;:51},{&amp;#34;s&amp;#34;:37,&amp;#34;n&amp;#34;:&amp;#34;fid&amp;#34;,&amp;#34;v&amp;#34;:2,&amp;#34;e&amp;#34;:51},{&amp;#34;s&amp;#34;:51,&amp;#34;n&amp;#34;:&amp;#34;fc&amp;#34;,&amp;#34;v&amp;#34;:&amp;#34;Bold&amp;#34;,&amp;#34;e&amp;#34;:66},{&amp;#34;s&amp;#34;:51,&amp;#34;n&amp;#34;:&amp;#34;b&amp;#34;,&amp;#34;v&amp;#34;:true,&amp;#34;e&amp;#34;:66},{&amp;#34;s&amp;#34;:51,&amp;#34;n&amp;#34;:&amp;#34;fid&amp;#34;,&amp;#34;v&amp;#34;:5,&amp;#34;e&amp;#34;:66},{&amp;#34;s&amp;#34;:66,&amp;#34;n&amp;#34;:&amp;#34;fc&amp;#34;,&amp;#34;v&amp;#34;:&amp;#34;Regular&amp;#34;,&amp;#34;e&amp;#34;:81},{&amp;#34;s&amp;#34;:66,&amp;#34;n&amp;#34;:&amp;#34;fid&amp;#34;,&amp;#34;v&amp;#34;:2,&amp;#34;e&amp;#34;:81},{&amp;#34;s&amp;#34;:67,&amp;#34;n&amp;#34;:&amp;#34;a&amp;#34;,&amp;#34;v&amp;#34;:&amp;#34;left&amp;#34;},{&amp;#34;s&amp;#34;:67,&amp;#34;n&amp;#34;:&amp;#34;fl&amp;#34;,&amp;#34;v&amp;#34;:18},{&amp;#34;s&amp;#34;:67,&amp;#34;n&amp;#34;:&amp;#34;il&amp;#34;,&amp;#34;v&amp;#34;:18},{&amp;#34;s&amp;#34;:67,&amp;#34;n&amp;#34;:&amp;#34;l&amp;#34;,&amp;#34;v&amp;#34;:&amp;#34;auto&amp;#34;},{&amp;#34;s&amp;#34;:67,&amp;#34;n&amp;#34;:&amp;#34;t&amp;#34;,&amp;#34;v&amp;#34;:&amp;#34;ul&amp;#34;},{&amp;#34;s&amp;#34;:81,&amp;#34;n&amp;#34;:&amp;#34;fc&amp;#34;,&amp;#34;v&amp;#34;:&amp;#34;Bold&amp;#34;,&amp;#34;e&amp;#34;:89},{&amp;#34;s&amp;#34;:81,&amp;#34;n&amp;#34;:&amp;#34;b&amp;#34;,&amp;#34;v&amp;#34;:true,&amp;#34;e&amp;#34;:89},{&amp;#34;s&amp;#34;:81,&amp;#34;n&amp;#34;:&amp;#34;fid&amp;#34;,&amp;#34;v&amp;#34;:5,&amp;#34;e&amp;#34;:89},{&amp;#34;s&amp;#34;:89,&amp;#34;n&amp;#34;:&amp;#34;a&amp;#34;,&amp;#34;v&amp;#34;:&amp;#34;left&amp;#34;},{&amp;#34;s&amp;#34;:89,&amp;#34;n&amp;#34;:&amp;#34;fl&amp;#34;,&amp;#34;v&amp;#34;:18},{&amp;#34;s&amp;#34;:89,&amp;#34;n&amp;#34;:&amp;#34;il&amp;#34;,&amp;#34;v&amp;#34;:18},{&amp;#34;s&amp;#34;:89,&amp;#34;n&amp;#34;:&amp;#34;l&amp;#34;,&amp;#34;v&amp;#34;:&amp;#34;auto&amp;#34;},{&amp;#34;s&amp;#34;:89,&amp;#34;n&amp;#34;:&amp;#34;t&amp;#34;,&amp;#34;v&amp;#34;:&amp;#34;ul&amp;#34;},{&amp;#34;s&amp;#34;:89,&amp;#34;n&amp;#34;:&amp;#34;fc&amp;#34;,&amp;#34;v&amp;#34;:&amp;#34;Regular&amp;#34;,&amp;#34;e&amp;#34;:101},{&amp;#34;s&amp;#34;:89,&amp;#34;n&amp;#34;:&amp;#34;fid&amp;#34;,&amp;#34;v&amp;#34;:2,&amp;#34;e&amp;#34;:101},{&amp;#34;s&amp;#34;:101,&amp;#34;n&amp;#34;:&amp;#34;fc&amp;#34;,&amp;#34;v&amp;#34;:&amp;#34;Bold&amp;#34;,&amp;#34;e&amp;#34;:108},{&amp;#34;s&amp;#34;:101,&amp;#34;n&amp;#34;:&amp;#34;b&amp;#34;,&amp;#34;v&amp;#34;:true,&amp;#34;e&amp;#34;:108},{&amp;#34;s&amp;#34;:101,&amp;#34;n&amp;#34;:&amp;#34;fid&amp;#34;,&amp;#34;v&amp;#34;:5,&amp;#34;e&amp;#34;:108}]}&quot;&gt;&lt;span style=&quot;text-align: left ; color: #333333 ; font-size: 16.83333333333333px&quot;&gt;public int &lt;b&gt;cost;&lt;/b&gt;&lt;/span&gt;&lt;/span&gt;" style="text;whiteSpace=wrap;html=1;fontFamily=Lucida Console;" vertex="1" parent="WIyWlLk6GJQsqaUBKTNV-1">
          <mxGeometry x="390" y="360" width="320" height="30" as="geometry" />
        </mxCell>
        <mxCell id="e0bECrX3CSkzmX3JzYQU-84" style="edgeStyle=orthogonalEdgeStyle;rounded=1;orthogonalLoop=1;jettySize=auto;html=1;exitX=0.5;exitY=1;exitDx=0;exitDy=0;entryX=1;entryY=0;entryDx=0;entryDy=0;fontFamily=Lucida Console;fontSize=16;strokeWidth=3;" edge="1" parent="WIyWlLk6GJQsqaUBKTNV-1" source="e0bECrX3CSkzmX3JzYQU-16" target="e0bECrX3CSkzmX3JzYQU-78">
          <mxGeometry relative="1" as="geometry" />
        </mxCell>
        <mxCell id="e0bECrX3CSkzmX3JzYQU-16" value="" style="rounded=1;whiteSpace=wrap;html=1;strokeWidth=4;" vertex="1" parent="WIyWlLk6GJQsqaUBKTNV-1">
          <mxGeometry x="890" y="150" width="335" height="210" as="geometry" />
        </mxCell>
        <UserObject label="Card Database : Monobehaviour" lucidchartObjectId="nDcRBjl5U1kZ" id="e0bECrX3CSkzmX3JzYQU-17">
          <mxCell style="html=1;overflow=block;blockSpacing=1;whiteSpace=wrap;fontSize=18.5;fontFamily=Liberation Mono;fontColor=#333333;fontStyle=1;align=center;spacing=3.8;strokeOpacity=0;fillOpacity=0;rounded=1;absoluteArcSize=1;arcSize=12;fillColor=#ffffff;strokeWidth=0.8;" vertex="1" parent="WIyWlLk6GJQsqaUBKTNV-1">
            <mxGeometry x="912.5" y="161" width="290" height="48" as="geometry" />
          </mxCell>
        </UserObject>
        <mxCell id="e0bECrX3CSkzmX3JzYQU-18" value="creatureCard List" style="rounded=0;whiteSpace=wrap;html=1;fontFamily=Lucida Console;fontSize=16;strokeWidth=3;" vertex="1" parent="WIyWlLk6GJQsqaUBKTNV-1">
          <mxGeometry x="955" y="209" width="210" height="60" as="geometry" />
        </mxCell>
        <mxCell id="e0bECrX3CSkzmX3JzYQU-19" value="creatureCard List" style="rounded=0;whiteSpace=wrap;html=1;fontFamily=Lucida Console;fontSize=16;strokeWidth=3;" vertex="1" parent="WIyWlLk6GJQsqaUBKTNV-1">
          <mxGeometry x="955" y="280" width="210" height="60" as="geometry" />
        </mxCell>
        <mxCell id="e0bECrX3CSkzmX3JzYQU-20" style="edgeStyle=orthogonalEdgeStyle;rounded=1;orthogonalLoop=1;jettySize=auto;html=1;exitX=1;exitY=0.5;exitDx=0;exitDy=0;entryX=0;entryY=0.5;entryDx=0;entryDy=0;fontFamily=Lucida Console;fontSize=16;strokeWidth=3;" edge="1" parent="WIyWlLk6GJQsqaUBKTNV-1" source="e0bECrX3CSkzmX3JzYQU-2" target="e0bECrX3CSkzmX3JzYQU-18">
          <mxGeometry relative="1" as="geometry" />
        </mxCell>
        <mxCell id="e0bECrX3CSkzmX3JzYQU-21" style="edgeStyle=orthogonalEdgeStyle;rounded=1;orthogonalLoop=1;jettySize=auto;html=1;exitX=1;exitY=0.5;exitDx=0;exitDy=0;entryX=0;entryY=0.5;entryDx=0;entryDy=0;fontFamily=Lucida Console;fontSize=16;strokeWidth=3;" edge="1" parent="WIyWlLk6GJQsqaUBKTNV-1" source="e0bECrX3CSkzmX3JzYQU-12" target="e0bECrX3CSkzmX3JzYQU-19">
          <mxGeometry relative="1" as="geometry" />
        </mxCell>
        <mxCell id="e0bECrX3CSkzmX3JzYQU-22" value="" style="rounded=1;whiteSpace=wrap;html=1;strokeWidth=4;" vertex="1" parent="WIyWlLk6GJQsqaUBKTNV-1">
          <mxGeometry x="1360" y="30" width="335" height="260" as="geometry" />
        </mxCell>
        <UserObject label="PlayerDeck : Monobehaviour" lucidchartObjectId="nDcRBjl5U1kZ" id="e0bECrX3CSkzmX3JzYQU-23">
          <mxCell style="html=1;overflow=block;blockSpacing=1;whiteSpace=wrap;fontSize=18.5;fontFamily=Liberation Mono;fontColor=#333333;fontStyle=1;align=center;spacing=3.8;strokeOpacity=0;fillOpacity=0;rounded=1;absoluteArcSize=1;arcSize=12;fillColor=#ffffff;strokeWidth=0.8;" vertex="1" parent="WIyWlLk6GJQsqaUBKTNV-1">
            <mxGeometry x="1370" y="40" width="290" height="48" as="geometry" />
          </mxCell>
        </UserObject>
        <mxCell id="e0bECrX3CSkzmX3JzYQU-24" value="List int Deck" style="rounded=0;whiteSpace=wrap;html=1;fontFamily=Lucida Console;fontSize=16;strokeWidth=3;" vertex="1" parent="WIyWlLk6GJQsqaUBKTNV-1">
          <mxGeometry x="1410" y="89" width="210" height="60" as="geometry" />
        </mxCell>
        <mxCell id="e0bECrX3CSkzmX3JzYQU-25" value="" style="rounded=1;whiteSpace=wrap;html=1;strokeWidth=4;" vertex="1" parent="WIyWlLk6GJQsqaUBKTNV-1">
          <mxGeometry x="1360" y="377" width="335" height="283" as="geometry" />
        </mxCell>
        <UserObject label="Discard : Monobehaviour" lucidchartObjectId="nDcRBjl5U1kZ" id="e0bECrX3CSkzmX3JzYQU-26">
          <mxCell style="html=1;overflow=block;blockSpacing=1;whiteSpace=wrap;fontSize=18.5;fontFamily=Liberation Mono;fontColor=#333333;fontStyle=1;align=center;spacing=3.8;strokeOpacity=0;fillOpacity=0;rounded=1;absoluteArcSize=1;arcSize=12;fillColor=#ffffff;strokeWidth=0.8;" vertex="1" parent="WIyWlLk6GJQsqaUBKTNV-1">
            <mxGeometry x="1370" y="377" width="290" height="48" as="geometry" />
          </mxCell>
        </UserObject>
        <mxCell id="e0bECrX3CSkzmX3JzYQU-27" value="List int Discard" style="rounded=0;whiteSpace=wrap;html=1;fontFamily=Lucida Console;fontSize=16;strokeWidth=3;" vertex="1" parent="WIyWlLk6GJQsqaUBKTNV-1">
          <mxGeometry x="1410" y="425" width="210" height="60" as="geometry" />
        </mxCell>
        <mxCell id="e0bECrX3CSkzmX3JzYQU-28" style="edgeStyle=orthogonalEdgeStyle;rounded=1;orthogonalLoop=1;jettySize=auto;html=1;exitX=1;exitY=0.5;exitDx=0;exitDy=0;entryX=0;entryY=0.5;entryDx=0;entryDy=0;fontFamily=Lucida Console;fontSize=16;strokeWidth=3;" edge="1" parent="WIyWlLk6GJQsqaUBKTNV-1" source="e0bECrX3CSkzmX3JzYQU-16" target="e0bECrX3CSkzmX3JzYQU-24">
          <mxGeometry relative="1" as="geometry" />
        </mxCell>
        <mxCell id="e0bECrX3CSkzmX3JzYQU-29" style="edgeStyle=orthogonalEdgeStyle;rounded=1;orthogonalLoop=1;jettySize=auto;html=1;exitX=1;exitY=0.5;exitDx=0;exitDy=0;entryX=0;entryY=0.5;entryDx=0;entryDy=0;fontFamily=Lucida Console;fontSize=16;strokeWidth=3;" edge="1" parent="WIyWlLk6GJQsqaUBKTNV-1" source="e0bECrX3CSkzmX3JzYQU-16" target="e0bECrX3CSkzmX3JzYQU-27">
          <mxGeometry relative="1" as="geometry" />
        </mxCell>
        <mxCell id="e0bECrX3CSkzmX3JzYQU-39" value="" style="group" vertex="1" connectable="0" parent="WIyWlLk6GJQsqaUBKTNV-1">
          <mxGeometry x="405" y="470" width="290" height="330" as="geometry" />
        </mxCell>
        <mxCell id="e0bECrX3CSkzmX3JzYQU-30" value="" style="rounded=1;whiteSpace=wrap;html=1;strokeWidth=4;" vertex="1" parent="e0bECrX3CSkzmX3JzYQU-39">
          <mxGeometry x="25" width="240" height="330" as="geometry" />
        </mxCell>
        <UserObject label="Effects Interface" lucidchartObjectId="nDcRBjl5U1kZ" id="e0bECrX3CSkzmX3JzYQU-31">
          <mxCell style="html=1;overflow=block;blockSpacing=1;whiteSpace=wrap;fontSize=18.5;fontFamily=Liberation Mono;fontColor=#333333;fontStyle=1;align=center;spacing=3.8;strokeOpacity=0;fillOpacity=0;rounded=1;absoluteArcSize=1;arcSize=12;fillColor=#ffffff;strokeWidth=0.8;" vertex="1" parent="e0bECrX3CSkzmX3JzYQU-39">
            <mxGeometry y="11" width="290" height="48" as="geometry" />
          </mxCell>
        </UserObject>
        <mxCell id="e0bECrX3CSkzmX3JzYQU-32" value="" style="rounded=1;whiteSpace=wrap;html=1;strokeWidth=4;" vertex="1" parent="e0bECrX3CSkzmX3JzYQU-39">
          <mxGeometry x="55" y="100" width="180" height="50" as="geometry" />
        </mxCell>
        <mxCell id="e0bECrX3CSkzmX3JzYQU-33" value="&lt;span data-lucid-type=&quot;application/vnd.lucid.text&quot; data-lucid-content=&quot;{&amp;#34;t&amp;#34;:&amp;#34;public int atk\npublic string hp\npublic List keywords\npublic Sprite unitSprite&amp;#34;,&amp;#34;m&amp;#34;:[{&amp;#34;s&amp;#34;:0,&amp;#34;n&amp;#34;:&amp;#34;a&amp;#34;,&amp;#34;v&amp;#34;:&amp;#34;left&amp;#34;},{&amp;#34;s&amp;#34;:0,&amp;#34;n&amp;#34;:&amp;#34;fl&amp;#34;,&amp;#34;v&amp;#34;:18},{&amp;#34;s&amp;#34;:0,&amp;#34;n&amp;#34;:&amp;#34;il&amp;#34;,&amp;#34;v&amp;#34;:18},{&amp;#34;s&amp;#34;:0,&amp;#34;n&amp;#34;:&amp;#34;l&amp;#34;,&amp;#34;v&amp;#34;:&amp;#34;auto&amp;#34;},{&amp;#34;s&amp;#34;:0,&amp;#34;n&amp;#34;:&amp;#34;t&amp;#34;,&amp;#34;v&amp;#34;:&amp;#34;ul&amp;#34;},{&amp;#34;s&amp;#34;:0,&amp;#34;n&amp;#34;:&amp;#34;c&amp;#34;,&amp;#34;v&amp;#34;:&amp;#34;333333ff&amp;#34;,&amp;#34;e&amp;#34;:77},{&amp;#34;s&amp;#34;:0,&amp;#34;n&amp;#34;:&amp;#34;s&amp;#34;,&amp;#34;v&amp;#34;:22.44444444444444,&amp;#34;e&amp;#34;:77},{&amp;#34;s&amp;#34;:11,&amp;#34;n&amp;#34;:&amp;#34;b&amp;#34;,&amp;#34;v&amp;#34;:true,&amp;#34;e&amp;#34;:15},{&amp;#34;s&amp;#34;:11,&amp;#34;n&amp;#34;:&amp;#34;fc&amp;#34;,&amp;#34;v&amp;#34;:&amp;#34;Bold&amp;#34;,&amp;#34;e&amp;#34;:15},{&amp;#34;s&amp;#34;:11,&amp;#34;n&amp;#34;:&amp;#34;fid&amp;#34;,&amp;#34;v&amp;#34;:5,&amp;#34;e&amp;#34;:15},{&amp;#34;s&amp;#34;:15,&amp;#34;n&amp;#34;:&amp;#34;a&amp;#34;,&amp;#34;v&amp;#34;:&amp;#34;left&amp;#34;},{&amp;#34;s&amp;#34;:15,&amp;#34;n&amp;#34;:&amp;#34;fl&amp;#34;,&amp;#34;v&amp;#34;:18},{&amp;#34;s&amp;#34;:15,&amp;#34;n&amp;#34;:&amp;#34;il&amp;#34;,&amp;#34;v&amp;#34;:18},{&amp;#34;s&amp;#34;:15,&amp;#34;n&amp;#34;:&amp;#34;l&amp;#34;,&amp;#34;v&amp;#34;:&amp;#34;auto&amp;#34;},{&amp;#34;s&amp;#34;:15,&amp;#34;n&amp;#34;:&amp;#34;t&amp;#34;,&amp;#34;v&amp;#34;:&amp;#34;ul&amp;#34;},{&amp;#34;s&amp;#34;:15,&amp;#34;n&amp;#34;:&amp;#34;fc&amp;#34;,&amp;#34;v&amp;#34;:&amp;#34;Regular&amp;#34;,&amp;#34;e&amp;#34;:29},{&amp;#34;s&amp;#34;:15,&amp;#34;n&amp;#34;:&amp;#34;fid&amp;#34;,&amp;#34;v&amp;#34;:2,&amp;#34;e&amp;#34;:29},{&amp;#34;s&amp;#34;:29,&amp;#34;n&amp;#34;:&amp;#34;b&amp;#34;,&amp;#34;v&amp;#34;:true,&amp;#34;e&amp;#34;:32},{&amp;#34;s&amp;#34;:29,&amp;#34;n&amp;#34;:&amp;#34;fc&amp;#34;,&amp;#34;v&amp;#34;:&amp;#34;Bold&amp;#34;,&amp;#34;e&amp;#34;:32},{&amp;#34;s&amp;#34;:29,&amp;#34;n&amp;#34;:&amp;#34;fid&amp;#34;,&amp;#34;v&amp;#34;:5,&amp;#34;e&amp;#34;:32},{&amp;#34;s&amp;#34;:32,&amp;#34;n&amp;#34;:&amp;#34;a&amp;#34;,&amp;#34;v&amp;#34;:&amp;#34;left&amp;#34;},{&amp;#34;s&amp;#34;:32,&amp;#34;n&amp;#34;:&amp;#34;fl&amp;#34;,&amp;#34;v&amp;#34;:18},{&amp;#34;s&amp;#34;:32,&amp;#34;n&amp;#34;:&amp;#34;il&amp;#34;,&amp;#34;v&amp;#34;:18},{&amp;#34;s&amp;#34;:32,&amp;#34;n&amp;#34;:&amp;#34;l&amp;#34;,&amp;#34;v&amp;#34;:&amp;#34;auto&amp;#34;},{&amp;#34;s&amp;#34;:32,&amp;#34;n&amp;#34;:&amp;#34;t&amp;#34;,&amp;#34;v&amp;#34;:&amp;#34;ul&amp;#34;},{&amp;#34;s&amp;#34;:32,&amp;#34;n&amp;#34;:&amp;#34;fc&amp;#34;,&amp;#34;v&amp;#34;:&amp;#34;Regular&amp;#34;,&amp;#34;e&amp;#34;:44},{&amp;#34;s&amp;#34;:32,&amp;#34;n&amp;#34;:&amp;#34;fid&amp;#34;,&amp;#34;v&amp;#34;:2,&amp;#34;e&amp;#34;:44},{&amp;#34;s&amp;#34;:53,&amp;#34;n&amp;#34;:&amp;#34;a&amp;#34;,&amp;#34;v&amp;#34;:&amp;#34;left&amp;#34;},{&amp;#34;s&amp;#34;:53,&amp;#34;n&amp;#34;:&amp;#34;fl&amp;#34;,&amp;#34;v&amp;#34;:18},{&amp;#34;s&amp;#34;:53,&amp;#34;n&amp;#34;:&amp;#34;il&amp;#34;,&amp;#34;v&amp;#34;:18},{&amp;#34;s&amp;#34;:53,&amp;#34;n&amp;#34;:&amp;#34;l&amp;#34;,&amp;#34;v&amp;#34;:&amp;#34;auto&amp;#34;},{&amp;#34;s&amp;#34;:53,&amp;#34;n&amp;#34;:&amp;#34;t&amp;#34;,&amp;#34;v&amp;#34;:&amp;#34;ul&amp;#34;},{&amp;#34;s&amp;#34;:52,&amp;#34;n&amp;#34;:&amp;#34;fc&amp;#34;,&amp;#34;v&amp;#34;:&amp;#34;Regular&amp;#34;,&amp;#34;e&amp;#34;:67},{&amp;#34;s&amp;#34;:44,&amp;#34;n&amp;#34;:&amp;#34;fc&amp;#34;,&amp;#34;v&amp;#34;:&amp;#34;Bold&amp;#34;,&amp;#34;e&amp;#34;:52},{&amp;#34;s&amp;#34;:44,&amp;#34;n&amp;#34;:&amp;#34;b&amp;#34;,&amp;#34;v&amp;#34;:true,&amp;#34;e&amp;#34;:52},{&amp;#34;s&amp;#34;:52,&amp;#34;n&amp;#34;:&amp;#34;fid&amp;#34;,&amp;#34;v&amp;#34;:2,&amp;#34;e&amp;#34;:67},{&amp;#34;s&amp;#34;:44,&amp;#34;n&amp;#34;:&amp;#34;fid&amp;#34;,&amp;#34;v&amp;#34;:5,&amp;#34;e&amp;#34;:52},{&amp;#34;s&amp;#34;:67,&amp;#34;n&amp;#34;:&amp;#34;fc&amp;#34;,&amp;#34;v&amp;#34;:&amp;#34;Bold&amp;#34;,&amp;#34;e&amp;#34;:77},{&amp;#34;s&amp;#34;:67,&amp;#34;n&amp;#34;:&amp;#34;b&amp;#34;,&amp;#34;v&amp;#34;:true,&amp;#34;e&amp;#34;:77},{&amp;#34;s&amp;#34;:67,&amp;#34;n&amp;#34;:&amp;#34;fid&amp;#34;,&amp;#34;v&amp;#34;:5,&amp;#34;e&amp;#34;:77}]}&quot;&gt;&lt;span style=&quot;text-align: left ; color: #333333 ; font-size: 16.83333333333333px&quot;&gt;public string&amp;nbsp;&lt;/span&gt;&lt;span style=&quot;text-align: left ; color: #333333 ; font-size: 16.83333333333333px ; font-weight: bold&quot;&gt;when;&lt;/span&gt;&lt;br&gt;&lt;/span&gt;" style="text;whiteSpace=wrap;html=1;fontFamily=Lucida Console;" vertex="1" parent="e0bECrX3CSkzmX3JzYQU-39">
          <mxGeometry x="45" y="50" width="200" height="30" as="geometry" />
        </mxCell>
        <mxCell id="e0bECrX3CSkzmX3JzYQU-34" value="&lt;span data-lucid-type=&quot;application/vnd.lucid.text&quot; data-lucid-content=&quot;{&amp;#34;t&amp;#34;:&amp;#34;public int atk\npublic string hp\npublic List keywords\npublic Sprite unitSprite&amp;#34;,&amp;#34;m&amp;#34;:[{&amp;#34;s&amp;#34;:0,&amp;#34;n&amp;#34;:&amp;#34;a&amp;#34;,&amp;#34;v&amp;#34;:&amp;#34;left&amp;#34;},{&amp;#34;s&amp;#34;:0,&amp;#34;n&amp;#34;:&amp;#34;fl&amp;#34;,&amp;#34;v&amp;#34;:18},{&amp;#34;s&amp;#34;:0,&amp;#34;n&amp;#34;:&amp;#34;il&amp;#34;,&amp;#34;v&amp;#34;:18},{&amp;#34;s&amp;#34;:0,&amp;#34;n&amp;#34;:&amp;#34;l&amp;#34;,&amp;#34;v&amp;#34;:&amp;#34;auto&amp;#34;},{&amp;#34;s&amp;#34;:0,&amp;#34;n&amp;#34;:&amp;#34;t&amp;#34;,&amp;#34;v&amp;#34;:&amp;#34;ul&amp;#34;},{&amp;#34;s&amp;#34;:0,&amp;#34;n&amp;#34;:&amp;#34;c&amp;#34;,&amp;#34;v&amp;#34;:&amp;#34;333333ff&amp;#34;,&amp;#34;e&amp;#34;:77},{&amp;#34;s&amp;#34;:0,&amp;#34;n&amp;#34;:&amp;#34;s&amp;#34;,&amp;#34;v&amp;#34;:22.44444444444444,&amp;#34;e&amp;#34;:77},{&amp;#34;s&amp;#34;:11,&amp;#34;n&amp;#34;:&amp;#34;b&amp;#34;,&amp;#34;v&amp;#34;:true,&amp;#34;e&amp;#34;:15},{&amp;#34;s&amp;#34;:11,&amp;#34;n&amp;#34;:&amp;#34;fc&amp;#34;,&amp;#34;v&amp;#34;:&amp;#34;Bold&amp;#34;,&amp;#34;e&amp;#34;:15},{&amp;#34;s&amp;#34;:11,&amp;#34;n&amp;#34;:&amp;#34;fid&amp;#34;,&amp;#34;v&amp;#34;:5,&amp;#34;e&amp;#34;:15},{&amp;#34;s&amp;#34;:15,&amp;#34;n&amp;#34;:&amp;#34;a&amp;#34;,&amp;#34;v&amp;#34;:&amp;#34;left&amp;#34;},{&amp;#34;s&amp;#34;:15,&amp;#34;n&amp;#34;:&amp;#34;fl&amp;#34;,&amp;#34;v&amp;#34;:18},{&amp;#34;s&amp;#34;:15,&amp;#34;n&amp;#34;:&amp;#34;il&amp;#34;,&amp;#34;v&amp;#34;:18},{&amp;#34;s&amp;#34;:15,&amp;#34;n&amp;#34;:&amp;#34;l&amp;#34;,&amp;#34;v&amp;#34;:&amp;#34;auto&amp;#34;},{&amp;#34;s&amp;#34;:15,&amp;#34;n&amp;#34;:&amp;#34;t&amp;#34;,&amp;#34;v&amp;#34;:&amp;#34;ul&amp;#34;},{&amp;#34;s&amp;#34;:15,&amp;#34;n&amp;#34;:&amp;#34;fc&amp;#34;,&amp;#34;v&amp;#34;:&amp;#34;Regular&amp;#34;,&amp;#34;e&amp;#34;:29},{&amp;#34;s&amp;#34;:15,&amp;#34;n&amp;#34;:&amp;#34;fid&amp;#34;,&amp;#34;v&amp;#34;:2,&amp;#34;e&amp;#34;:29},{&amp;#34;s&amp;#34;:29,&amp;#34;n&amp;#34;:&amp;#34;b&amp;#34;,&amp;#34;v&amp;#34;:true,&amp;#34;e&amp;#34;:32},{&amp;#34;s&amp;#34;:29,&amp;#34;n&amp;#34;:&amp;#34;fc&amp;#34;,&amp;#34;v&amp;#34;:&amp;#34;Bold&amp;#34;,&amp;#34;e&amp;#34;:32},{&amp;#34;s&amp;#34;:29,&amp;#34;n&amp;#34;:&amp;#34;fid&amp;#34;,&amp;#34;v&amp;#34;:5,&amp;#34;e&amp;#34;:32},{&amp;#34;s&amp;#34;:32,&amp;#34;n&amp;#34;:&amp;#34;a&amp;#34;,&amp;#34;v&amp;#34;:&amp;#34;left&amp;#34;},{&amp;#34;s&amp;#34;:32,&amp;#34;n&amp;#34;:&amp;#34;fl&amp;#34;,&amp;#34;v&amp;#34;:18},{&amp;#34;s&amp;#34;:32,&amp;#34;n&amp;#34;:&amp;#34;il&amp;#34;,&amp;#34;v&amp;#34;:18},{&amp;#34;s&amp;#34;:32,&amp;#34;n&amp;#34;:&amp;#34;l&amp;#34;,&amp;#34;v&amp;#34;:&amp;#34;auto&amp;#34;},{&amp;#34;s&amp;#34;:32,&amp;#34;n&amp;#34;:&amp;#34;t&amp;#34;,&amp;#34;v&amp;#34;:&amp;#34;ul&amp;#34;},{&amp;#34;s&amp;#34;:32,&amp;#34;n&amp;#34;:&amp;#34;fc&amp;#34;,&amp;#34;v&amp;#34;:&amp;#34;Regular&amp;#34;,&amp;#34;e&amp;#34;:44},{&amp;#34;s&amp;#34;:32,&amp;#34;n&amp;#34;:&amp;#34;fid&amp;#34;,&amp;#34;v&amp;#34;:2,&amp;#34;e&amp;#34;:44},{&amp;#34;s&amp;#34;:53,&amp;#34;n&amp;#34;:&amp;#34;a&amp;#34;,&amp;#34;v&amp;#34;:&amp;#34;left&amp;#34;},{&amp;#34;s&amp;#34;:53,&amp;#34;n&amp;#34;:&amp;#34;fl&amp;#34;,&amp;#34;v&amp;#34;:18},{&amp;#34;s&amp;#34;:53,&amp;#34;n&amp;#34;:&amp;#34;il&amp;#34;,&amp;#34;v&amp;#34;:18},{&amp;#34;s&amp;#34;:53,&amp;#34;n&amp;#34;:&amp;#34;l&amp;#34;,&amp;#34;v&amp;#34;:&amp;#34;auto&amp;#34;},{&amp;#34;s&amp;#34;:53,&amp;#34;n&amp;#34;:&amp;#34;t&amp;#34;,&amp;#34;v&amp;#34;:&amp;#34;ul&amp;#34;},{&amp;#34;s&amp;#34;:52,&amp;#34;n&amp;#34;:&amp;#34;fc&amp;#34;,&amp;#34;v&amp;#34;:&amp;#34;Regular&amp;#34;,&amp;#34;e&amp;#34;:67},{&amp;#34;s&amp;#34;:44,&amp;#34;n&amp;#34;:&amp;#34;fc&amp;#34;,&amp;#34;v&amp;#34;:&amp;#34;Bold&amp;#34;,&amp;#34;e&amp;#34;:52},{&amp;#34;s&amp;#34;:44,&amp;#34;n&amp;#34;:&amp;#34;b&amp;#34;,&amp;#34;v&amp;#34;:true,&amp;#34;e&amp;#34;:52},{&amp;#34;s&amp;#34;:52,&amp;#34;n&amp;#34;:&amp;#34;fid&amp;#34;,&amp;#34;v&amp;#34;:2,&amp;#34;e&amp;#34;:67},{&amp;#34;s&amp;#34;:44,&amp;#34;n&amp;#34;:&amp;#34;fid&amp;#34;,&amp;#34;v&amp;#34;:5,&amp;#34;e&amp;#34;:52},{&amp;#34;s&amp;#34;:67,&amp;#34;n&amp;#34;:&amp;#34;fc&amp;#34;,&amp;#34;v&amp;#34;:&amp;#34;Bold&amp;#34;,&amp;#34;e&amp;#34;:77},{&amp;#34;s&amp;#34;:67,&amp;#34;n&amp;#34;:&amp;#34;b&amp;#34;,&amp;#34;v&amp;#34;:true,&amp;#34;e&amp;#34;:77},{&amp;#34;s&amp;#34;:67,&amp;#34;n&amp;#34;:&amp;#34;fid&amp;#34;,&amp;#34;v&amp;#34;:5,&amp;#34;e&amp;#34;:77}]}&quot;&gt;&lt;font color=&quot;#333333&quot;&gt;&lt;span style=&quot;font-size: 16.8333px&quot;&gt;Draw&lt;/span&gt;&lt;/font&gt;&lt;br&gt;&lt;/span&gt;" style="text;whiteSpace=wrap;html=1;fontFamily=Lucida Console;" vertex="1" parent="e0bECrX3CSkzmX3JzYQU-39">
          <mxGeometry x="120" y="110" width="50" height="30" as="geometry" />
        </mxCell>
        <mxCell id="e0bECrX3CSkzmX3JzYQU-35" value="" style="rounded=1;whiteSpace=wrap;html=1;strokeWidth=4;" vertex="1" parent="e0bECrX3CSkzmX3JzYQU-39">
          <mxGeometry x="55" y="170" width="180" height="50" as="geometry" />
        </mxCell>
        <mxCell id="e0bECrX3CSkzmX3JzYQU-36" value="&lt;span data-lucid-type=&quot;application/vnd.lucid.text&quot; data-lucid-content=&quot;{&amp;#34;t&amp;#34;:&amp;#34;public int atk\npublic string hp\npublic List keywords\npublic Sprite unitSprite&amp;#34;,&amp;#34;m&amp;#34;:[{&amp;#34;s&amp;#34;:0,&amp;#34;n&amp;#34;:&amp;#34;a&amp;#34;,&amp;#34;v&amp;#34;:&amp;#34;left&amp;#34;},{&amp;#34;s&amp;#34;:0,&amp;#34;n&amp;#34;:&amp;#34;fl&amp;#34;,&amp;#34;v&amp;#34;:18},{&amp;#34;s&amp;#34;:0,&amp;#34;n&amp;#34;:&amp;#34;il&amp;#34;,&amp;#34;v&amp;#34;:18},{&amp;#34;s&amp;#34;:0,&amp;#34;n&amp;#34;:&amp;#34;l&amp;#34;,&amp;#34;v&amp;#34;:&amp;#34;auto&amp;#34;},{&amp;#34;s&amp;#34;:0,&amp;#34;n&amp;#34;:&amp;#34;t&amp;#34;,&amp;#34;v&amp;#34;:&amp;#34;ul&amp;#34;},{&amp;#34;s&amp;#34;:0,&amp;#34;n&amp;#34;:&amp;#34;c&amp;#34;,&amp;#34;v&amp;#34;:&amp;#34;333333ff&amp;#34;,&amp;#34;e&amp;#34;:77},{&amp;#34;s&amp;#34;:0,&amp;#34;n&amp;#34;:&amp;#34;s&amp;#34;,&amp;#34;v&amp;#34;:22.44444444444444,&amp;#34;e&amp;#34;:77},{&amp;#34;s&amp;#34;:11,&amp;#34;n&amp;#34;:&amp;#34;b&amp;#34;,&amp;#34;v&amp;#34;:true,&amp;#34;e&amp;#34;:15},{&amp;#34;s&amp;#34;:11,&amp;#34;n&amp;#34;:&amp;#34;fc&amp;#34;,&amp;#34;v&amp;#34;:&amp;#34;Bold&amp;#34;,&amp;#34;e&amp;#34;:15},{&amp;#34;s&amp;#34;:11,&amp;#34;n&amp;#34;:&amp;#34;fid&amp;#34;,&amp;#34;v&amp;#34;:5,&amp;#34;e&amp;#34;:15},{&amp;#34;s&amp;#34;:15,&amp;#34;n&amp;#34;:&amp;#34;a&amp;#34;,&amp;#34;v&amp;#34;:&amp;#34;left&amp;#34;},{&amp;#34;s&amp;#34;:15,&amp;#34;n&amp;#34;:&amp;#34;fl&amp;#34;,&amp;#34;v&amp;#34;:18},{&amp;#34;s&amp;#34;:15,&amp;#34;n&amp;#34;:&amp;#34;il&amp;#34;,&amp;#34;v&amp;#34;:18},{&amp;#34;s&amp;#34;:15,&amp;#34;n&amp;#34;:&amp;#34;l&amp;#34;,&amp;#34;v&amp;#34;:&amp;#34;auto&amp;#34;},{&amp;#34;s&amp;#34;:15,&amp;#34;n&amp;#34;:&amp;#34;t&amp;#34;,&amp;#34;v&amp;#34;:&amp;#34;ul&amp;#34;},{&amp;#34;s&amp;#34;:15,&amp;#34;n&amp;#34;:&amp;#34;fc&amp;#34;,&amp;#34;v&amp;#34;:&amp;#34;Regular&amp;#34;,&amp;#34;e&amp;#34;:29},{&amp;#34;s&amp;#34;:15,&amp;#34;n&amp;#34;:&amp;#34;fid&amp;#34;,&amp;#34;v&amp;#34;:2,&amp;#34;e&amp;#34;:29},{&amp;#34;s&amp;#34;:29,&amp;#34;n&amp;#34;:&amp;#34;b&amp;#34;,&amp;#34;v&amp;#34;:true,&amp;#34;e&amp;#34;:32},{&amp;#34;s&amp;#34;:29,&amp;#34;n&amp;#34;:&amp;#34;fc&amp;#34;,&amp;#34;v&amp;#34;:&amp;#34;Bold&amp;#34;,&amp;#34;e&amp;#34;:32},{&amp;#34;s&amp;#34;:29,&amp;#34;n&amp;#34;:&amp;#34;fid&amp;#34;,&amp;#34;v&amp;#34;:5,&amp;#34;e&amp;#34;:32},{&amp;#34;s&amp;#34;:32,&amp;#34;n&amp;#34;:&amp;#34;a&amp;#34;,&amp;#34;v&amp;#34;:&amp;#34;left&amp;#34;},{&amp;#34;s&amp;#34;:32,&amp;#34;n&amp;#34;:&amp;#34;fl&amp;#34;,&amp;#34;v&amp;#34;:18},{&amp;#34;s&amp;#34;:32,&amp;#34;n&amp;#34;:&amp;#34;il&amp;#34;,&amp;#34;v&amp;#34;:18},{&amp;#34;s&amp;#34;:32,&amp;#34;n&amp;#34;:&amp;#34;l&amp;#34;,&amp;#34;v&amp;#34;:&amp;#34;auto&amp;#34;},{&amp;#34;s&amp;#34;:32,&amp;#34;n&amp;#34;:&amp;#34;t&amp;#34;,&amp;#34;v&amp;#34;:&amp;#34;ul&amp;#34;},{&amp;#34;s&amp;#34;:32,&amp;#34;n&amp;#34;:&amp;#34;fc&amp;#34;,&amp;#34;v&amp;#34;:&amp;#34;Regular&amp;#34;,&amp;#34;e&amp;#34;:44},{&amp;#34;s&amp;#34;:32,&amp;#34;n&amp;#34;:&amp;#34;fid&amp;#34;,&amp;#34;v&amp;#34;:2,&amp;#34;e&amp;#34;:44},{&amp;#34;s&amp;#34;:53,&amp;#34;n&amp;#34;:&amp;#34;a&amp;#34;,&amp;#34;v&amp;#34;:&amp;#34;left&amp;#34;},{&amp;#34;s&amp;#34;:53,&amp;#34;n&amp;#34;:&amp;#34;fl&amp;#34;,&amp;#34;v&amp;#34;:18},{&amp;#34;s&amp;#34;:53,&amp;#34;n&amp;#34;:&amp;#34;il&amp;#34;,&amp;#34;v&amp;#34;:18},{&amp;#34;s&amp;#34;:53,&amp;#34;n&amp;#34;:&amp;#34;l&amp;#34;,&amp;#34;v&amp;#34;:&amp;#34;auto&amp;#34;},{&amp;#34;s&amp;#34;:53,&amp;#34;n&amp;#34;:&amp;#34;t&amp;#34;,&amp;#34;v&amp;#34;:&amp;#34;ul&amp;#34;},{&amp;#34;s&amp;#34;:52,&amp;#34;n&amp;#34;:&amp;#34;fc&amp;#34;,&amp;#34;v&amp;#34;:&amp;#34;Regular&amp;#34;,&amp;#34;e&amp;#34;:67},{&amp;#34;s&amp;#34;:44,&amp;#34;n&amp;#34;:&amp;#34;fc&amp;#34;,&amp;#34;v&amp;#34;:&amp;#34;Bold&amp;#34;,&amp;#34;e&amp;#34;:52},{&amp;#34;s&amp;#34;:44,&amp;#34;n&amp;#34;:&amp;#34;b&amp;#34;,&amp;#34;v&amp;#34;:true,&amp;#34;e&amp;#34;:52},{&amp;#34;s&amp;#34;:52,&amp;#34;n&amp;#34;:&amp;#34;fid&amp;#34;,&amp;#34;v&amp;#34;:2,&amp;#34;e&amp;#34;:67},{&amp;#34;s&amp;#34;:44,&amp;#34;n&amp;#34;:&amp;#34;fid&amp;#34;,&amp;#34;v&amp;#34;:5,&amp;#34;e&amp;#34;:52},{&amp;#34;s&amp;#34;:67,&amp;#34;n&amp;#34;:&amp;#34;fc&amp;#34;,&amp;#34;v&amp;#34;:&amp;#34;Bold&amp;#34;,&amp;#34;e&amp;#34;:77},{&amp;#34;s&amp;#34;:67,&amp;#34;n&amp;#34;:&amp;#34;b&amp;#34;,&amp;#34;v&amp;#34;:true,&amp;#34;e&amp;#34;:77},{&amp;#34;s&amp;#34;:67,&amp;#34;n&amp;#34;:&amp;#34;fid&amp;#34;,&amp;#34;v&amp;#34;:5,&amp;#34;e&amp;#34;:77}]}&quot;&gt;&lt;font color=&quot;#333333&quot;&gt;&lt;span style=&quot;font-size: 16.8333px&quot;&gt;Heal&lt;/span&gt;&lt;/font&gt;&lt;br&gt;&lt;/span&gt;" style="text;whiteSpace=wrap;html=1;fontFamily=Lucida Console;" vertex="1" parent="e0bECrX3CSkzmX3JzYQU-39">
          <mxGeometry x="120" y="180" width="50" height="30" as="geometry" />
        </mxCell>
        <mxCell id="e0bECrX3CSkzmX3JzYQU-37" value="" style="ellipse;whiteSpace=wrap;html=1;aspect=fixed;fontFamily=Lucida Console;fontSize=16;strokeWidth=3;" vertex="1" parent="e0bECrX3CSkzmX3JzYQU-39">
          <mxGeometry x="135" y="240" width="20" height="20" as="geometry" />
        </mxCell>
        <mxCell id="e0bECrX3CSkzmX3JzYQU-38" value="" style="ellipse;whiteSpace=wrap;html=1;aspect=fixed;fontFamily=Lucida Console;fontSize=16;strokeWidth=3;" vertex="1" parent="e0bECrX3CSkzmX3JzYQU-39">
          <mxGeometry x="135" y="280" width="20" height="20" as="geometry" />
        </mxCell>
        <mxCell id="e0bECrX3CSkzmX3JzYQU-96" style="edgeStyle=orthogonalEdgeStyle;rounded=1;orthogonalLoop=1;jettySize=auto;html=1;exitX=1;exitY=0.5;exitDx=0;exitDy=0;fontFamily=Lucida Console;fontSize=16;strokeWidth=3;" edge="1" parent="WIyWlLk6GJQsqaUBKTNV-1" source="e0bECrX3CSkzmX3JzYQU-40" target="e0bECrX3CSkzmX3JzYQU-64">
          <mxGeometry relative="1" as="geometry" />
        </mxCell>
        <mxCell id="e0bECrX3CSkzmX3JzYQU-40" value="" style="rounded=1;whiteSpace=wrap;html=1;strokeWidth=4;" vertex="1" parent="WIyWlLk6GJQsqaUBKTNV-1">
          <mxGeometry x="80" y="900" width="480" height="230" as="geometry" />
        </mxCell>
        <UserObject label="Board Manager" lucidchartObjectId="nDcRBjl5U1kZ" id="e0bECrX3CSkzmX3JzYQU-41">
          <mxCell style="html=1;overflow=block;blockSpacing=1;whiteSpace=wrap;fontSize=18.5;fontFamily=Liberation Mono;fontColor=#333333;fontStyle=1;align=center;spacing=3.8;strokeOpacity=0;fillOpacity=0;rounded=1;absoluteArcSize=1;arcSize=12;fillColor=#ffffff;strokeWidth=0.8;" vertex="1" parent="WIyWlLk6GJQsqaUBKTNV-1">
            <mxGeometry x="90" y="910" width="180" height="48" as="geometry" />
          </mxCell>
        </UserObject>
        <mxCell id="e0bECrX3CSkzmX3JzYQU-94" style="edgeStyle=orthogonalEdgeStyle;rounded=1;orthogonalLoop=1;jettySize=auto;html=1;exitX=1;exitY=0.5;exitDx=0;exitDy=0;entryX=0;entryY=0.75;entryDx=0;entryDy=0;fontFamily=Lucida Console;fontSize=16;strokeWidth=3;" edge="1" parent="WIyWlLk6GJQsqaUBKTNV-1" source="e0bECrX3CSkzmX3JzYQU-42" target="e0bECrX3CSkzmX3JzYQU-64">
          <mxGeometry relative="1" as="geometry" />
        </mxCell>
        <mxCell id="e0bECrX3CSkzmX3JzYQU-42" value="" style="rounded=1;whiteSpace=wrap;html=1;strokeWidth=4;" vertex="1" parent="WIyWlLk6GJQsqaUBKTNV-1">
          <mxGeometry x="80" y="1220" width="480" height="230" as="geometry" />
        </mxCell>
        <UserObject label="Mouse Manager" lucidchartObjectId="nDcRBjl5U1kZ" id="e0bECrX3CSkzmX3JzYQU-43">
          <mxCell style="html=1;overflow=block;blockSpacing=1;whiteSpace=wrap;fontSize=18.5;fontFamily=Liberation Mono;fontColor=#333333;fontStyle=1;align=center;spacing=3.8;strokeOpacity=0;fillOpacity=0;rounded=1;absoluteArcSize=1;arcSize=12;fillColor=#ffffff;strokeWidth=0.8;" vertex="1" parent="WIyWlLk6GJQsqaUBKTNV-1">
            <mxGeometry x="90" y="1230" width="180" height="48" as="geometry" />
          </mxCell>
        </UserObject>
        <mxCell id="e0bECrX3CSkzmX3JzYQU-44" style="edgeStyle=orthogonalEdgeStyle;rounded=1;orthogonalLoop=1;jettySize=auto;html=1;exitX=0;exitY=0.75;exitDx=0;exitDy=0;entryX=0;entryY=0.25;entryDx=0;entryDy=0;fontFamily=Lucida Console;fontSize=16;strokeWidth=3;" edge="1" parent="WIyWlLk6GJQsqaUBKTNV-1" source="e0bECrX3CSkzmX3JzYQU-0" target="e0bECrX3CSkzmX3JzYQU-30">
          <mxGeometry relative="1" as="geometry" />
        </mxCell>
        <mxCell id="e0bECrX3CSkzmX3JzYQU-51" value="" style="shape=hexagon;perimeter=hexagonPerimeter2;whiteSpace=wrap;html=1;fixedSize=1;fontFamily=Lucida Console;fontSize=16;strokeWidth=3;" vertex="1" parent="WIyWlLk6GJQsqaUBKTNV-1">
          <mxGeometry x="1660" y="480.5" width="220" height="76" as="geometry" />
        </mxCell>
        <UserObject label="DiscardG.O" lucidchartObjectId="nDcRBjl5U1kZ" id="e0bECrX3CSkzmX3JzYQU-52">
          <mxCell style="html=1;overflow=block;blockSpacing=1;whiteSpace=wrap;fontSize=18.5;fontFamily=Liberation Mono;fontColor=#333333;fontStyle=1;align=center;spacing=3.8;strokeOpacity=0;fillOpacity=0;rounded=1;absoluteArcSize=1;arcSize=12;fillColor=#ffffff;strokeWidth=0.8;" vertex="1" parent="WIyWlLk6GJQsqaUBKTNV-1">
            <mxGeometry x="1680" y="496.5" width="180" height="48" as="geometry" />
          </mxCell>
        </UserObject>
        <mxCell id="e0bECrX3CSkzmX3JzYQU-53" value="" style="shape=hexagon;perimeter=hexagonPerimeter2;whiteSpace=wrap;html=1;fixedSize=1;fontFamily=Lucida Console;fontSize=16;strokeWidth=3;" vertex="1" parent="WIyWlLk6GJQsqaUBKTNV-1">
          <mxGeometry x="1660" y="120" width="220" height="80" as="geometry" />
        </mxCell>
        <UserObject label="Deck G.O" lucidchartObjectId="nDcRBjl5U1kZ" id="e0bECrX3CSkzmX3JzYQU-54">
          <mxCell style="html=1;overflow=block;blockSpacing=1;whiteSpace=wrap;fontSize=18.5;fontFamily=Liberation Mono;fontColor=#333333;fontStyle=1;align=center;spacing=3.8;strokeOpacity=0;fillOpacity=0;rounded=1;absoluteArcSize=1;arcSize=12;fillColor=#ffffff;strokeWidth=0.8;" vertex="1" parent="WIyWlLk6GJQsqaUBKTNV-1">
            <mxGeometry x="1680" y="140" width="180" height="48" as="geometry" />
          </mxCell>
        </UserObject>
        <mxCell id="e0bECrX3CSkzmX3JzYQU-57" value="" style="group" vertex="1" connectable="0" parent="WIyWlLk6GJQsqaUBKTNV-1">
          <mxGeometry x="75" y="274" width="180" height="50" as="geometry" />
        </mxCell>
        <mxCell id="e0bECrX3CSkzmX3JzYQU-55" value="" style="shape=dataStorage;whiteSpace=wrap;html=1;fixedSize=1;fontFamily=Lucida Console;fontSize=16;strokeWidth=3;" vertex="1" parent="e0bECrX3CSkzmX3JzYQU-57">
          <mxGeometry x="20" width="160" height="50" as="geometry" />
        </mxCell>
        <UserObject label="On Play" lucidchartObjectId="nDcRBjl5U1kZ" id="e0bECrX3CSkzmX3JzYQU-56">
          <mxCell style="html=1;overflow=block;blockSpacing=1;whiteSpace=wrap;fontSize=18.5;fontFamily=Liberation Mono;fontColor=#333333;fontStyle=1;align=center;spacing=3.8;strokeOpacity=0;fillOpacity=0;rounded=1;absoluteArcSize=1;arcSize=12;fillColor=#ffffff;strokeWidth=0.8;" vertex="1" parent="e0bECrX3CSkzmX3JzYQU-57">
            <mxGeometry y="2" width="180" height="48" as="geometry" />
          </mxCell>
        </UserObject>
        <mxCell id="e0bECrX3CSkzmX3JzYQU-58" value="" style="ellipse;whiteSpace=wrap;html=1;aspect=fixed;fontFamily=Lucida Console;fontSize=16;strokeWidth=3;" vertex="1" parent="WIyWlLk6GJQsqaUBKTNV-1">
          <mxGeometry x="155" y="340" width="20" height="20" as="geometry" />
        </mxCell>
        <mxCell id="e0bECrX3CSkzmX3JzYQU-59" value="" style="ellipse;whiteSpace=wrap;html=1;aspect=fixed;fontFamily=Lucida Console;fontSize=16;strokeWidth=3;" vertex="1" parent="WIyWlLk6GJQsqaUBKTNV-1">
          <mxGeometry x="155" y="377" width="20" height="20" as="geometry" />
        </mxCell>
        <mxCell id="e0bECrX3CSkzmX3JzYQU-70" value="&lt;font color=&quot;#333333&quot;&gt;&lt;span style=&quot;font-size: 16.8333px&quot;&gt;Raycaster &lt;b&gt;ourHitObject&lt;/b&gt;&lt;/span&gt;&lt;/font&gt;" style="text;whiteSpace=wrap;html=1;fontFamily=Lucida Console;" vertex="1" parent="WIyWlLk6GJQsqaUBKTNV-1">
          <mxGeometry x="100" y="1278" width="320" height="30" as="geometry" />
        </mxCell>
        <mxCell id="e0bECrX3CSkzmX3JzYQU-76" value="" style="group" vertex="1" connectable="0" parent="WIyWlLk6GJQsqaUBKTNV-1">
          <mxGeometry x="875" y="450" width="370" height="160" as="geometry" />
        </mxCell>
        <mxCell id="e0bECrX3CSkzmX3JzYQU-77" value="" style="rounded=1;whiteSpace=wrap;html=1;strokeWidth=4;" vertex="1" parent="e0bECrX3CSkzmX3JzYQU-76">
          <mxGeometry x="40" y="150" width="330" height="160" as="geometry" />
        </mxCell>
        <UserObject label="Card Display" lucidchartObjectId="nDcRBjl5U1kZ" id="e0bECrX3CSkzmX3JzYQU-78">
          <mxCell style="html=1;overflow=block;blockSpacing=1;whiteSpace=wrap;fontSize=18.5;fontFamily=Liberation Mono;fontColor=#333333;fontStyle=1;align=center;spacing=3.8;strokeOpacity=0;fillOpacity=0;rounded=1;absoluteArcSize=1;arcSize=12;fillColor=#ffffff;strokeWidth=0.8;" vertex="1" parent="e0bECrX3CSkzmX3JzYQU-76">
            <mxGeometry x="40" y="150" width="180" height="48" as="geometry" />
          </mxCell>
        </UserObject>
        <mxCell id="e0bECrX3CSkzmX3JzYQU-109" value="&lt;span style=&quot;color: rgb(51 , 51 , 51) ; font-family: &amp;#34;lucida console&amp;#34; ; font-size: 17px ; font-style: normal ; font-weight: 400 ; letter-spacing: normal ; text-align: left ; text-indent: 0px ; text-transform: none ; word-spacing: 0px ; background-color: rgb(248 , 249 , 250) ; display: inline ; float: none&quot;&gt;Uses ID to get card info&lt;br&gt;Puts info in card object&lt;br&gt;&lt;/span&gt;" style="text;whiteSpace=wrap;html=1;fontSize=17;fontFamily=Lucida Console;" vertex="1" parent="e0bECrX3CSkzmX3JzYQU-76">
          <mxGeometry x="55" y="198" width="265" height="40" as="geometry" />
        </mxCell>
        <mxCell id="e0bECrX3CSkzmX3JzYQU-85" value="" style="group" vertex="1" connectable="0" parent="WIyWlLk6GJQsqaUBKTNV-1">
          <mxGeometry x="630" y="1090" width="370" height="160" as="geometry" />
        </mxCell>
        <mxCell id="e0bECrX3CSkzmX3JzYQU-64" value="" style="rounded=1;whiteSpace=wrap;html=1;strokeWidth=4;" vertex="1" parent="e0bECrX3CSkzmX3JzYQU-85">
          <mxGeometry x="40" width="330" height="160" as="geometry" />
        </mxCell>
        <UserObject label="Unit" lucidchartObjectId="nDcRBjl5U1kZ" id="e0bECrX3CSkzmX3JzYQU-65">
          <mxCell style="html=1;overflow=block;blockSpacing=1;whiteSpace=wrap;fontSize=18.5;fontFamily=Liberation Mono;fontColor=#333333;fontStyle=1;align=center;spacing=3.8;strokeOpacity=0;fillOpacity=0;rounded=1;absoluteArcSize=1;arcSize=12;fillColor=#ffffff;strokeWidth=0.8;" vertex="1" parent="e0bECrX3CSkzmX3JzYQU-85">
            <mxGeometry width="180" height="48" as="geometry" />
          </mxCell>
        </UserObject>
        <mxCell id="e0bECrX3CSkzmX3JzYQU-116" value="&lt;span style=&quot;color: rgb(51 , 51 , 51) ; font-family: &amp;#34;lucida console&amp;#34; ; font-size: 17px ; font-style: normal ; font-weight: 400 ; letter-spacing: normal ; text-align: left ; text-indent: 0px ; text-transform: none ; word-spacing: 0px ; background-color: rgb(248 , 249 , 250) ; display: inline ; float: none&quot;&gt;Unit stats&lt;br&gt;Unit effects&lt;br&gt;&lt;/span&gt;" style="text;whiteSpace=wrap;html=1;fontSize=17;fontFamily=Lucida Console;" vertex="1" parent="e0bECrX3CSkzmX3JzYQU-85">
          <mxGeometry x="60" y="40" width="135" height="40" as="geometry" />
        </mxCell>
        <mxCell id="e0bECrX3CSkzmX3JzYQU-86" value="" style="group" vertex="1" connectable="0" parent="WIyWlLk6GJQsqaUBKTNV-1">
          <mxGeometry x="1210" y="680" width="340" height="160" as="geometry" />
        </mxCell>
        <mxCell id="e0bECrX3CSkzmX3JzYQU-80" value="" style="rounded=1;whiteSpace=wrap;html=1;strokeWidth=4;" vertex="1" parent="e0bECrX3CSkzmX3JzYQU-86">
          <mxGeometry width="330" height="160" as="geometry" />
        </mxCell>
        <mxCell id="e0bECrX3CSkzmX3JzYQU-82" value="" style="group" vertex="1" connectable="0" parent="e0bECrX3CSkzmX3JzYQU-86">
          <mxGeometry x="20" y="20" width="110" height="30" as="geometry" />
        </mxCell>
        <UserObject label="Draggable" lucidchartObjectId="nDcRBjl5U1kZ" id="e0bECrX3CSkzmX3JzYQU-81">
          <mxCell style="html=1;overflow=block;blockSpacing=1;whiteSpace=wrap;fontSize=18.5;fontFamily=Liberation Mono;fontColor=#333333;fontStyle=1;align=center;spacing=3.8;strokeOpacity=0;fillOpacity=0;rounded=1;absoluteArcSize=1;arcSize=12;fillColor=#ffffff;strokeWidth=0.8;" vertex="1" parent="e0bECrX3CSkzmX3JzYQU-82">
            <mxGeometry width="56.57142857142858" height="9" as="geometry" />
          </mxCell>
        </UserObject>
        <mxCell id="e0bECrX3CSkzmX3JzYQU-106" value="&lt;font style=&quot;font-size: 17px&quot;&gt;&lt;font color=&quot;#333333&quot; style=&quot;font-size: 17px&quot;&gt;OnClick&lt;br&gt;&lt;/font&gt;OnDrop&lt;/font&gt;" style="text;whiteSpace=wrap;html=1;fontFamily=Lucida Console;" vertex="1" parent="e0bECrX3CSkzmX3JzYQU-86">
          <mxGeometry x="30" y="60" width="320" height="60" as="geometry" />
        </mxCell>
        <mxCell id="e0bECrX3CSkzmX3JzYQU-108" value="&lt;span style=&quot;color: rgb(51 , 51 , 51) ; font-family: &amp;#34;lucida console&amp;#34; ; font-size: 17px ; font-style: normal ; font-weight: 400 ; letter-spacing: normal ; text-align: left ; text-indent: 0px ; text-transform: none ; word-spacing: 0px ; background-color: rgb(248 , 249 , 250) ; display: inline ; float: none&quot;&gt;Instantiates&lt;/span&gt;" style="text;whiteSpace=wrap;html=1;fontSize=17;fontFamily=Lucida Console;" vertex="1" parent="WIyWlLk6GJQsqaUBKTNV-1">
          <mxGeometry x="1225" y="1130" width="135" height="40" as="geometry" />
        </mxCell>
        <mxCell id="e0bECrX3CSkzmX3JzYQU-111" value="" style="shape=hexagon;perimeter=hexagonPerimeter2;whiteSpace=wrap;html=1;fixedSize=1;fontFamily=Lucida Console;fontSize=16;strokeWidth=3;" vertex="1" parent="WIyWlLk6GJQsqaUBKTNV-1">
          <mxGeometry x="-100" y="977" width="220" height="76" as="geometry" />
        </mxCell>
        <UserObject label="Board Manager G.O" lucidchartObjectId="nDcRBjl5U1kZ" id="e0bECrX3CSkzmX3JzYQU-112">
          <mxCell style="html=1;overflow=block;blockSpacing=1;whiteSpace=wrap;fontSize=18.5;fontFamily=Liberation Mono;fontColor=#333333;fontStyle=1;align=center;spacing=3.8;strokeOpacity=0;fillOpacity=0;rounded=1;absoluteArcSize=1;arcSize=12;fillColor=#ffffff;strokeWidth=0.8;" vertex="1" parent="WIyWlLk6GJQsqaUBKTNV-1">
            <mxGeometry x="-80" y="993" width="180" height="48" as="geometry" />
          </mxCell>
        </UserObject>
        <mxCell id="e0bECrX3CSkzmX3JzYQU-113" value="" style="shape=hexagon;perimeter=hexagonPerimeter2;whiteSpace=wrap;html=1;fixedSize=1;fontFamily=Lucida Console;fontSize=16;strokeWidth=3;" vertex="1" parent="WIyWlLk6GJQsqaUBKTNV-1">
          <mxGeometry x="-120" y="1308" width="220" height="76" as="geometry" />
        </mxCell>
        <UserObject label="Mouse Manager G.O" lucidchartObjectId="nDcRBjl5U1kZ" id="e0bECrX3CSkzmX3JzYQU-114">
          <mxCell style="html=1;overflow=block;blockSpacing=1;whiteSpace=wrap;fontSize=18.5;fontFamily=Liberation Mono;fontColor=#333333;fontStyle=1;align=center;spacing=3.8;strokeOpacity=0;fillOpacity=0;rounded=1;absoluteArcSize=1;arcSize=12;fillColor=#ffffff;strokeWidth=0.8;" vertex="1" parent="WIyWlLk6GJQsqaUBKTNV-1">
            <mxGeometry x="-100" y="1324" width="180" height="48" as="geometry" />
          </mxCell>
        </UserObject>
        <mxCell id="e0bECrX3CSkzmX3JzYQU-83" value="" style="group" vertex="1" connectable="0" parent="WIyWlLk6GJQsqaUBKTNV-1">
          <mxGeometry x="970" y="1130" width="220" height="80" as="geometry" />
        </mxCell>
        <mxCell id="e0bECrX3CSkzmX3JzYQU-62" value="" style="shape=hexagon;perimeter=hexagonPerimeter2;whiteSpace=wrap;html=1;fixedSize=1;fontFamily=Lucida Console;fontSize=16;strokeWidth=3;" vertex="1" parent="e0bECrX3CSkzmX3JzYQU-83">
          <mxGeometry width="220" height="80" as="geometry" />
        </mxCell>
        <UserObject label="Unit G.O" lucidchartObjectId="nDcRBjl5U1kZ" id="e0bECrX3CSkzmX3JzYQU-63">
          <mxCell style="html=1;overflow=block;blockSpacing=1;whiteSpace=wrap;fontSize=18.5;fontFamily=Liberation Mono;fontColor=#333333;fontStyle=1;align=center;spacing=3.8;strokeOpacity=0;fillOpacity=0;rounded=1;absoluteArcSize=1;arcSize=12;fillColor=#ffffff;strokeWidth=0.8;" vertex="1" parent="e0bECrX3CSkzmX3JzYQU-83">
            <mxGeometry x="20" y="20" width="180" height="48" as="geometry" />
          </mxCell>
        </UserObject>
        <mxCell id="e0bECrX3CSkzmX3JzYQU-67" value="" style="group" vertex="1" connectable="0" parent="WIyWlLk6GJQsqaUBKTNV-1">
          <mxGeometry x="1010" y="720" width="220" height="80" as="geometry" />
        </mxCell>
        <mxCell id="e0bECrX3CSkzmX3JzYQU-47" value="" style="shape=hexagon;perimeter=hexagonPerimeter2;whiteSpace=wrap;html=1;fixedSize=1;fontFamily=Lucida Console;fontSize=16;strokeWidth=3;" vertex="1" parent="e0bECrX3CSkzmX3JzYQU-67">
          <mxGeometry width="220" height="80" as="geometry" />
        </mxCell>
        <UserObject label="Card G.O" lucidchartObjectId="nDcRBjl5U1kZ" id="e0bECrX3CSkzmX3JzYQU-48">
          <mxCell style="html=1;overflow=block;blockSpacing=1;whiteSpace=wrap;fontSize=18.5;fontFamily=Liberation Mono;fontColor=#333333;fontStyle=1;align=center;spacing=3.8;strokeOpacity=0;fillOpacity=0;rounded=1;absoluteArcSize=1;arcSize=12;fillColor=#ffffff;strokeWidth=0.8;" vertex="1" parent="e0bECrX3CSkzmX3JzYQU-67">
            <mxGeometry x="20" y="20" width="180" height="48" as="geometry" />
          </mxCell>
        </UserObject>
        <mxCell id="e0bECrX3CSkzmX3JzYQU-115" style="edgeStyle=orthogonalEdgeStyle;rounded=1;orthogonalLoop=1;jettySize=auto;html=1;exitX=0.5;exitY=1;exitDx=0;exitDy=0;entryX=1;entryY=0.5;entryDx=0;entryDy=0;fontFamily=Lucida Console;fontSize=17;strokeWidth=3;" edge="1" parent="WIyWlLk6GJQsqaUBKTNV-1" source="e0bECrX3CSkzmX3JzYQU-80" target="e0bECrX3CSkzmX3JzYQU-62">
          <mxGeometry relative="1" as="geometry" />
        </mxCell>
      </root>
    </mxGraphModel>
  </diagram>
</mxfile>
